<svg version="1.1" viewBox="0.0 0.0 512.0 512.0" fill="none" stroke="none" stroke-linecap="square" stroke-miterlimit="10" xmlns:xlink="http://www.w3.org/1999/xlink" xmlns="http://www.w3.org/2000/svg"><clipPath id="p.0"><path d="m0 0l512.0 0l0 512.0l-512.0 0l0 -512.0z" clip-rule="nonzero"/></clipPath><g clip-path="url(#p.0)"><path fill="#000000" fill-opacity="0.0" d="m0 0l512.0 0l0 512.0l-512.0 0z" fill-rule="evenodd"/><path fill="#000000" fill-opacity="0.0" d="m21.52756 99.6866l0 0c0 -43.166046 34.992996 -78.15904 78.15904 -78.15904l312.62677 0l0 0c20.729065 0 40.60913 8.234591 55.266815 22.892252c14.657654 14.657665 22.892242 34.537724 22.892242 55.26679l0 312.62677c0 43.166046 -34.99301 78.15906 -78.15906 78.15906l-312.62677 0c-43.166046 0 -78.15904 -34.99301 -78.15904 -78.15906z" fill-rule="evenodd"/><path stroke="#ffffff" stroke-width="24.0" stroke-linejoin="round" stroke-linecap="butt" d="m21.52756 99.6866l0 0c0 -43.166046 34.992996 -78.15904 78.15904 -78.15904l312.62677 0l0 0c20.729065 0 40.60913 8.234591 55.266815 22.892252c14.657654 14.657665 22.892242 34.537724 22.892242 55.26679l0 312.62677c0 43.166046 -34.99301 78.15906 -78.15906 78.15906l-312.62677 0c-43.166046 0 -78.15904 -34.99301 -78.15904 -78.15906z" fill-rule="evenodd"/><path fill="#000000" fill-opacity="0.0" d="m144.06425 262.5867l0 0c0 -60.77974 49.271713 -110.05147 110.05147 -110.05147l0 0c29.18747 0 57.179474 11.594681 77.818146 32.233337c20.638641 20.638641 32.233307 48.63066 32.233307 77.81813l0 0c0 60.779755 -49.271698 110.05145 -110.05145 110.05145l0 0c-60.779755 0 -110.05147 -49.271698 -110.05147 -110.05145z" fill-rule="evenodd"/><path stroke="#ffffff" stroke-width="24.0" stroke-linejoin="round" stroke-linecap="butt" d="m144.06425 262.5867l0 0c0 -60.77974 49.271713 -110.05147 110.05147 -110.05147l0 0c29.18747 0 57.179474 11.594681 77.818146 32.233337c20.638641 20.638641 32.233307 48.63066 32.233307 77.81813l0 0c0 60.779755 -49.271698 110.05145 -110.05145 110.05145l0 0c-60.779755 0 -110.05147 -49.271698 -110.05147 -110.05145z" fill-rule="evenodd"/><path fill="#000000" fill-opacity="0.0" d="m335.7467 136.81755l0 0c0 -17.038734 13.812592 -30.851357 30.851318 -30.851357l0 0c8.182312 0 16.02945 3.2504044 21.815216 9.036156c5.785736 5.7857437 9.036133 13.632904 9.036133 21.8152l0 0c0 17.038727 -13.812592 30.851334 -30.851349 30.851334l0 0c-17.038727 0 -30.851318 -13.812607 -30.851318 -30.851334z" fill-rule="evenodd"/><path stroke="#ffffff" stroke-width="16.0" stroke-linejoin="round" stroke-linecap="butt" d="m335.7467 136.81755l0 0c0 -17.038734 13.812592 -30.851357 30.851318 -30.851357l0 0c8.182312 0 16.02945 3.2504044 21.815216 9.036156c5.785736 5.7857437 9.036133 13.632904 9.036133 21.8152l0 0c0 17.038727 -13.812592 30.851334 -30.851349 30.851334l0 0c-17.038727 0 -30.851318 -13.812607 -30.851318 -30.851334z" fill-rule="evenodd"/></g></svg>